# xmcd
#
# Track frame offsets: 
#        150
#        24325
#        42156
#        59883
#        92477
#        111332
#        130273
#        164288
#        191518
#
# Disc length: 2814 seconds
#
# Revision: 6
# Processed by: cddbd v1.5.2PL0 Copyright (c) Steve Scherf et al.
# Submitted via: ExactAudioCopy v0.99pb4
#
DISCID=760afc09
DTITLE=10Cc - Live And Let Live [CD1]
DYEAR=2008
DGENRE=Pop/Rock
TTITLE0=The Second Sitting For The Last Supper
TTITLE1=You've Got A Cold
TTITLE2=Honeymoon With B Troop
TTITLE3=Arts For Arts Sake
TTITLE4=People In Love
TTITLE5=Wall Street Shuffle
TTITLE6=Ships Don't Disappear In The Night
TTITLE7=I'm Mandy Fly Me
TTITLE8=Marriage Bureau Rendezvous
EXTD=YEAR: 1977
EXTT0=
EXTT1=
EXTT2=
EXTT3=
EXTT4=
EXTT5=
EXTT6=
EXTT7=
EXTT8=
PLAYORDER=
